<mxfile host="Electron" modified="2023-12-06T08:38:11.134Z" agent="Mozilla/5.0 (Windows NT 10.0; Win64; x64) AppleWebKit/537.36 (KHTML, like Gecko) draw.io/22.1.2 Chrome/114.0.5735.289 Electron/25.9.4 Safari/537.36" etag="br-osXey25I_PzTZRGCR" version="22.1.2" type="device">
  <diagram name="Page-1" id="6l38EQ1VsZh7mEGPNhvn">
    <mxGraphModel dx="2261" dy="844" grid="1" gridSize="10" guides="1" tooltips="1" connect="1" arrows="1" fold="1" page="1" pageScale="1" pageWidth="827" pageHeight="1169" math="0" shadow="0">
      <root>
        <mxCell id="0" />
        <mxCell id="1" parent="0" />
        <mxCell id="AsieEkdOvfvtQGgoSZl1-1" value="Entrez le nombre d&#39;année d&#39;assurance" style="ellipse;whiteSpace=wrap;html=1;" parent="1" vertex="1">
          <mxGeometry x="354" y="440" width="120" height="80" as="geometry" />
        </mxCell>
        <mxCell id="AsieEkdOvfvtQGgoSZl1-8" value="" style="edgeStyle=orthogonalEdgeStyle;rounded=0;orthogonalLoop=1;jettySize=auto;html=1;" parent="1" source="AsieEkdOvfvtQGgoSZl1-2" target="AsieEkdOvfvtQGgoSZl1-3" edge="1">
          <mxGeometry relative="1" as="geometry" />
        </mxCell>
        <mxCell id="AsieEkdOvfvtQGgoSZl1-2" value="Entrez l&#39;age du conducteur" style="ellipse;whiteSpace=wrap;html=1;" parent="1" vertex="1">
          <mxGeometry x="354" y="60" width="120" height="80" as="geometry" />
        </mxCell>
        <mxCell id="AsieEkdOvfvtQGgoSZl1-3" value="Entrez l&#39;age du permis du conducteur" style="ellipse;whiteSpace=wrap;html=1;" parent="1" vertex="1">
          <mxGeometry x="354" y="190" width="120" height="70" as="geometry" />
        </mxCell>
        <mxCell id="AsieEkdOvfvtQGgoSZl1-4" value="Entrez le nombre d&#39;accident du conducteur" style="ellipse;whiteSpace=wrap;html=1;" parent="1" vertex="1">
          <mxGeometry x="354" y="310" width="120" height="80" as="geometry" />
        </mxCell>
        <mxCell id="AsieEkdOvfvtQGgoSZl1-5" value="" style="endArrow=classic;html=1;rounded=0;" parent="1" edge="1">
          <mxGeometry width="50" height="50" relative="1" as="geometry">
            <mxPoint x="413" y="140" as="sourcePoint" />
            <mxPoint x="413" y="190" as="targetPoint" />
          </mxGeometry>
        </mxCell>
        <mxCell id="AsieEkdOvfvtQGgoSZl1-6" value="" style="endArrow=classic;html=1;rounded=0;" parent="1" edge="1">
          <mxGeometry width="50" height="50" relative="1" as="geometry">
            <mxPoint x="414" y="260" as="sourcePoint" />
            <mxPoint x="414" y="310" as="targetPoint" />
          </mxGeometry>
        </mxCell>
        <mxCell id="AsieEkdOvfvtQGgoSZl1-7" value="" style="endArrow=classic;html=1;rounded=0;" parent="1" edge="1">
          <mxGeometry width="50" height="50" relative="1" as="geometry">
            <mxPoint x="414" y="390" as="sourcePoint" />
            <mxPoint x="414" y="440" as="targetPoint" />
          </mxGeometry>
        </mxCell>
        <mxCell id="AsieEkdOvfvtQGgoSZl1-9" value="Si age &amp;gt;=25,age permis&amp;gt;2,nombre d&#39;accident=0 et années assurance &amp;gt;5" style="rhombus;whiteSpace=wrap;html=1;fontColor=#000000;fillColor=#ffffc0;strokeColor=#ff0000;" parent="1" vertex="1">
          <mxGeometry x="298" y="570" width="232" height="120" as="geometry" />
        </mxCell>
        <mxCell id="AsieEkdOvfvtQGgoSZl1-12" value="" style="endArrow=classic;html=1;rounded=0;" parent="1" edge="1">
          <mxGeometry width="50" height="50" relative="1" as="geometry">
            <mxPoint x="413.5" y="520" as="sourcePoint" />
            <mxPoint x="413.5" y="570" as="targetPoint" />
          </mxGeometry>
        </mxCell>
        <mxCell id="AsieEkdOvfvtQGgoSZl1-14" value="" style="endArrow=classic;html=1;rounded=0;" parent="1" target="AsieEkdOvfvtQGgoSZl1-15" edge="1">
          <mxGeometry width="50" height="50" relative="1" as="geometry">
            <mxPoint x="413" y="690" as="sourcePoint" />
            <mxPoint x="413" y="750" as="targetPoint" />
          </mxGeometry>
        </mxCell>
        <mxCell id="AsieEkdOvfvtQGgoSZl1-15" value="Le conducteur a droit au tarif bleu" style="ellipse;whiteSpace=wrap;html=1;" parent="1" vertex="1">
          <mxGeometry x="354" y="780" width="120" height="80" as="geometry" />
        </mxCell>
        <mxCell id="hotO7utxvEW5eODrOK_z-1" value="Si age &amp;gt;=25,age permis&amp;gt;2,nombre d&#39;accident=1 et années assurance &amp;gt;5" style="rhombus;whiteSpace=wrap;html=1;fontColor=#000000;fillColor=#ffffc0;strokeColor=#ff0000;" parent="1" vertex="1">
          <mxGeometry x="630" y="565" width="250" height="130" as="geometry" />
        </mxCell>
        <mxCell id="hotO7utxvEW5eODrOK_z-4" value="" style="endArrow=classic;html=1;rounded=0;entryX=0;entryY=0.5;entryDx=0;entryDy=0;" parent="1" target="hotO7utxvEW5eODrOK_z-1" edge="1">
          <mxGeometry width="50" height="50" relative="1" as="geometry">
            <mxPoint x="530" y="629.5" as="sourcePoint" />
            <mxPoint x="610" y="629.5" as="targetPoint" />
          </mxGeometry>
        </mxCell>
        <mxCell id="hotO7utxvEW5eODrOK_z-6" value="Le conducteur a droit au tarif vert&lt;br&gt;" style="ellipse;whiteSpace=wrap;html=1;" parent="1" vertex="1">
          <mxGeometry x="695" y="780" width="120" height="80" as="geometry" />
        </mxCell>
        <mxCell id="hotO7utxvEW5eODrOK_z-7" value="" style="endArrow=classic;html=1;rounded=0;entryX=0.5;entryY=0;entryDx=0;entryDy=0;entryPerimeter=0;" parent="1" target="hotO7utxvEW5eODrOK_z-6" edge="1">
          <mxGeometry width="50" height="50" relative="1" as="geometry">
            <mxPoint x="754.5" y="695" as="sourcePoint" />
            <mxPoint x="755" y="770" as="targetPoint" />
          </mxGeometry>
        </mxCell>
        <mxCell id="hotO7utxvEW5eODrOK_z-10" value="Si age &amp;gt;=25,age permis&amp;gt;2,nombre d&#39;accident=2 et années assurance &amp;gt;5" style="rhombus;whiteSpace=wrap;html=1;fontColor=#000000;fillColor=#ffffc0;strokeColor=#ff0000;" parent="1" vertex="1">
          <mxGeometry x="980" y="565" width="250" height="130" as="geometry" />
        </mxCell>
        <mxCell id="hotO7utxvEW5eODrOK_z-11" value="" style="endArrow=classic;html=1;rounded=0;entryX=0;entryY=0.5;entryDx=0;entryDy=0;" parent="1" target="hotO7utxvEW5eODrOK_z-10" edge="1">
          <mxGeometry width="50" height="50" relative="1" as="geometry">
            <mxPoint x="880" y="629.5" as="sourcePoint" />
            <mxPoint x="960" y="629.5" as="targetPoint" />
          </mxGeometry>
        </mxCell>
        <mxCell id="hotO7utxvEW5eODrOK_z-12" value="Le conducteur a droit au tarif orange" style="ellipse;whiteSpace=wrap;html=1;" parent="1" vertex="1">
          <mxGeometry x="1045" y="780" width="120" height="80" as="geometry" />
        </mxCell>
        <mxCell id="hotO7utxvEW5eODrOK_z-13" value="" style="endArrow=classic;html=1;rounded=0;entryX=0.5;entryY=0;entryDx=0;entryDy=0;entryPerimeter=0;" parent="1" target="hotO7utxvEW5eODrOK_z-12" edge="1">
          <mxGeometry width="50" height="50" relative="1" as="geometry">
            <mxPoint x="1104.5" y="695" as="sourcePoint" />
            <mxPoint x="1105" y="770" as="targetPoint" />
          </mxGeometry>
        </mxCell>
        <mxCell id="hotO7utxvEW5eODrOK_z-14" value="" style="endArrow=classic;html=1;rounded=0;entryX=0;entryY=0.5;entryDx=0;entryDy=0;" parent="1" target="hotO7utxvEW5eODrOK_z-19" edge="1">
          <mxGeometry width="50" height="50" relative="1" as="geometry">
            <mxPoint x="474" y="480" as="sourcePoint" />
            <mxPoint x="558" y="479.5" as="targetPoint" />
          </mxGeometry>
        </mxCell>
        <mxCell id="hotO7utxvEW5eODrOK_z-19" value="Si age &amp;lt;=25,age permis&amp;lt;2,nombre d&#39;accident=0 et années assurance &amp;lt;5" style="rhombus;whiteSpace=wrap;html=1;fontColor=#000000;fillColor=#ffffc0;strokeColor=#ff0000;" parent="1" vertex="1">
          <mxGeometry x="639" y="420" width="232" height="120" as="geometry" />
        </mxCell>
        <mxCell id="hotO7utxvEW5eODrOK_z-20" value="Le conducteur a droit au tarif rouge" style="ellipse;whiteSpace=wrap;html=1;" parent="1" vertex="1">
          <mxGeometry x="930" y="440" width="120" height="80" as="geometry" />
        </mxCell>
        <mxCell id="hotO7utxvEW5eODrOK_z-21" value="" style="endArrow=classic;html=1;rounded=0;" parent="1" edge="1">
          <mxGeometry width="50" height="50" relative="1" as="geometry">
            <mxPoint x="871" y="479.5" as="sourcePoint" />
            <mxPoint x="930" y="480" as="targetPoint" />
            <Array as="points">
              <mxPoint x="911" y="479.5" />
            </Array>
          </mxGeometry>
        </mxCell>
        <mxCell id="AlOQU3xbpBUKA7uWgHgc-1" value="" style="endArrow=classic;html=1;rounded=0;entryX=0;entryY=0.5;entryDx=0;entryDy=0;" edge="1" parent="1">
          <mxGeometry width="50" height="50" relative="1" as="geometry">
            <mxPoint x="455.81" y="450" as="sourcePoint" />
            <mxPoint x="640" y="340" as="targetPoint" />
          </mxGeometry>
        </mxCell>
        <mxCell id="AlOQU3xbpBUKA7uWgHgc-5" value="Si age &amp;lt;25 ou &amp;gt;25,age permis&amp;gt;2 ou &amp;lt;2,nombre d&#39;accident=0 ou =1 et années assurance &amp;lt;5" style="rhombus;whiteSpace=wrap;html=1;fontColor=#000000;fillColor=#ffffc0;strokeColor=#ff0000;" vertex="1" parent="1">
          <mxGeometry x="639" y="280" width="231" height="120" as="geometry" />
        </mxCell>
        <mxCell id="AlOQU3xbpBUKA7uWgHgc-6" value="" style="endArrow=classic;html=1;rounded=0;entryX=0;entryY=0.5;entryDx=0;entryDy=0;" edge="1" parent="1" target="hotO7utxvEW5eODrOK_z-12">
          <mxGeometry width="50" height="50" relative="1" as="geometry">
            <mxPoint x="871" y="340" as="sourcePoint" />
            <mxPoint x="920" y="820" as="targetPoint" />
            <Array as="points">
              <mxPoint x="920" y="340" />
              <mxPoint x="920" y="820" />
            </Array>
          </mxGeometry>
        </mxCell>
        <mxCell id="AlOQU3xbpBUKA7uWgHgc-7" value="" style="endArrow=classic;html=1;rounded=0;exitX=0.5;exitY=0;exitDx=0;exitDy=0;entryX=0.5;entryY=0;entryDx=0;entryDy=0;" edge="1" parent="1" source="AlOQU3xbpBUKA7uWgHgc-5" target="hotO7utxvEW5eODrOK_z-20">
          <mxGeometry width="50" height="50" relative="1" as="geometry">
            <mxPoint x="760" y="240" as="sourcePoint" />
            <mxPoint x="1000" y="190" as="targetPoint" />
            <Array as="points">
              <mxPoint x="755" y="190" />
              <mxPoint x="870" y="190" />
              <mxPoint x="960" y="190" />
              <mxPoint x="990" y="190" />
              <mxPoint x="990" y="240" />
              <mxPoint x="990" y="280" />
            </Array>
          </mxGeometry>
        </mxCell>
        <mxCell id="AlOQU3xbpBUKA7uWgHgc-11" value="" style="endArrow=classic;html=1;rounded=0;entryX=1;entryY=0.5;entryDx=0;entryDy=0;" edge="1" parent="1" target="AlOQU3xbpBUKA7uWgHgc-12">
          <mxGeometry width="50" height="50" relative="1" as="geometry">
            <mxPoint x="354" y="479.5" as="sourcePoint" />
            <mxPoint x="270" y="480" as="targetPoint" />
          </mxGeometry>
        </mxCell>
        <mxCell id="AlOQU3xbpBUKA7uWgHgc-12" value="Si age &amp;gt;25,age permis&amp;gt;2,nombre d&#39;accident=0 et années assurance &amp;lt;5" style="rhombus;whiteSpace=wrap;html=1;fontColor=#000000;fillColor=#ffffc0;strokeColor=#ff0000;" vertex="1" parent="1">
          <mxGeometry x="30" y="420" width="232" height="120" as="geometry" />
        </mxCell>
        <mxCell id="AlOQU3xbpBUKA7uWgHgc-15" value="" style="endArrow=classic;html=1;rounded=0;exitX=0.5;exitY=1;exitDx=0;exitDy=0;entryX=0.042;entryY=0.5;entryDx=0;entryDy=0;entryPerimeter=0;" edge="1" parent="1" source="AlOQU3xbpBUKA7uWgHgc-12" target="hotO7utxvEW5eODrOK_z-6">
          <mxGeometry width="50" height="50" relative="1" as="geometry">
            <mxPoint x="150" y="560" as="sourcePoint" />
            <mxPoint x="690" y="820" as="targetPoint" />
            <Array as="points">
              <mxPoint x="146" y="760" />
              <mxPoint x="170" y="760" />
              <mxPoint x="420" y="760" />
              <mxPoint x="660" y="760" />
              <mxPoint x="660" y="820" />
            </Array>
          </mxGeometry>
        </mxCell>
        <mxCell id="AlOQU3xbpBUKA7uWgHgc-16" value="Si age &amp;gt;25,age permis&amp;gt;2,nombre d&#39;accident=0 et années assurance &amp;lt;5" style="rhombus;whiteSpace=wrap;html=1;fontColor=#000000;fillColor=#ffffc0;strokeColor=#ff0000;" vertex="1" parent="1">
          <mxGeometry x="1160" y="420" width="232" height="120" as="geometry" />
        </mxCell>
        <mxCell id="AlOQU3xbpBUKA7uWgHgc-17" value="Si age &amp;gt;25,age permis&amp;gt;2,nombre d&#39;accident=1 et années assurance &amp;lt;5" style="rhombus;whiteSpace=wrap;html=1;fontColor=#000000;fillColor=#ffffc0;strokeColor=#ff0000;" vertex="1" parent="1">
          <mxGeometry x="1310" y="760" width="232" height="120" as="geometry" />
        </mxCell>
        <mxCell id="AlOQU3xbpBUKA7uWgHgc-18" value="" style="endArrow=classic;html=1;rounded=0;entryX=1;entryY=0.5;entryDx=0;entryDy=0;exitX=0;exitY=0.5;exitDx=0;exitDy=0;" edge="1" parent="1" source="AlOQU3xbpBUKA7uWgHgc-17" target="hotO7utxvEW5eODrOK_z-12">
          <mxGeometry width="50" height="50" relative="1" as="geometry">
            <mxPoint x="1271" y="819.5" as="sourcePoint" />
            <mxPoint x="1211" y="819.5" as="targetPoint" />
          </mxGeometry>
        </mxCell>
        <mxCell id="AlOQU3xbpBUKA7uWgHgc-19" value="" style="endArrow=classic;html=1;rounded=0;entryX=1;entryY=0.5;entryDx=0;entryDy=0;" edge="1" parent="1" target="hotO7utxvEW5eODrOK_z-20">
          <mxGeometry width="50" height="50" relative="1" as="geometry">
            <mxPoint x="1160" y="479.5" as="sourcePoint" />
            <mxPoint x="1090" y="479.5" as="targetPoint" />
          </mxGeometry>
        </mxCell>
        <mxCell id="AlOQU3xbpBUKA7uWgHgc-20" value="" style="endArrow=classic;html=1;rounded=0;entryX=0.5;entryY=0;entryDx=0;entryDy=0;" edge="1" parent="1" source="AsieEkdOvfvtQGgoSZl1-1" target="AlOQU3xbpBUKA7uWgHgc-16">
          <mxGeometry width="50" height="50" relative="1" as="geometry">
            <mxPoint x="440" y="430" as="sourcePoint" />
            <mxPoint x="1280" y="120" as="targetPoint" />
            <Array as="points">
              <mxPoint x="590" y="280" />
              <mxPoint x="720" y="120" />
              <mxPoint x="1280" y="120" />
            </Array>
          </mxGeometry>
        </mxCell>
        <mxCell id="AlOQU3xbpBUKA7uWgHgc-21" value="Le conducteur n&#39;est pas assuré" style="ellipse;whiteSpace=wrap;html=1;" vertex="1" parent="1">
          <mxGeometry x="694.5" y="950" width="120" height="80" as="geometry" />
        </mxCell>
        <mxCell id="AlOQU3xbpBUKA7uWgHgc-22" value="" style="endArrow=classic;html=1;rounded=0;entryX=0;entryY=0.5;entryDx=0;entryDy=0;" edge="1" parent="1" target="AlOQU3xbpBUKA7uWgHgc-21">
          <mxGeometry width="50" height="50" relative="1" as="geometry">
            <mxPoint x="30" y="480" as="sourcePoint" />
            <mxPoint x="-30" y="1000" as="targetPoint" />
            <Array as="points">
              <mxPoint x="-20" y="480" />
              <mxPoint x="-20" y="990" />
            </Array>
          </mxGeometry>
        </mxCell>
        <mxCell id="AlOQU3xbpBUKA7uWgHgc-23" value="" style="endArrow=classic;html=1;rounded=0;entryX=0.5;entryY=0;entryDx=0;entryDy=0;" edge="1" parent="1" target="AlOQU3xbpBUKA7uWgHgc-21">
          <mxGeometry width="50" height="50" relative="1" as="geometry">
            <mxPoint x="298" y="630" as="sourcePoint" />
            <mxPoint x="760" y="920" as="targetPoint" />
            <Array as="points">
              <mxPoint x="248" y="630" />
              <mxPoint x="248" y="900" />
              <mxPoint x="380" y="900" />
              <mxPoint x="510" y="900" />
              <mxPoint x="755" y="900" />
            </Array>
          </mxGeometry>
        </mxCell>
        <mxCell id="AlOQU3xbpBUKA7uWgHgc-24" value="" style="endArrow=classic;html=1;rounded=0;entryX=0;entryY=0;entryDx=0;entryDy=0;exitX=0;exitY=1;exitDx=0;exitDy=0;" edge="1" parent="1" source="hotO7utxvEW5eODrOK_z-1" target="AlOQU3xbpBUKA7uWgHgc-21">
          <mxGeometry width="50" height="50" relative="1" as="geometry">
            <mxPoint x="682.5" y="660" as="sourcePoint" />
            <mxPoint x="680" y="960" as="targetPoint" />
            <Array as="points">
              <mxPoint x="690" y="962" />
            </Array>
          </mxGeometry>
        </mxCell>
        <mxCell id="AlOQU3xbpBUKA7uWgHgc-25" value="" style="endArrow=classic;html=1;rounded=0;exitX=1;exitY=0.5;exitDx=0;exitDy=0;" edge="1" parent="1" source="hotO7utxvEW5eODrOK_z-19">
          <mxGeometry width="50" height="50" relative="1" as="geometry">
            <mxPoint x="900" y="510" as="sourcePoint" />
            <mxPoint x="815" y="990" as="targetPoint" />
            <Array as="points">
              <mxPoint x="900" y="990" />
            </Array>
          </mxGeometry>
        </mxCell>
        <mxCell id="AlOQU3xbpBUKA7uWgHgc-26" value="" style="endArrow=classic;html=1;rounded=0;entryX=0.029;entryY=0.375;entryDx=0;entryDy=0;entryPerimeter=0;exitX=0;exitY=1;exitDx=0;exitDy=0;" edge="1" parent="1" source="AlOQU3xbpBUKA7uWgHgc-5" target="AlOQU3xbpBUKA7uWgHgc-21">
          <mxGeometry width="50" height="50" relative="1" as="geometry">
            <mxPoint x="680" y="360" as="sourcePoint" />
            <mxPoint x="620" y="980" as="targetPoint" />
            <Array as="points">
              <mxPoint x="660" y="370" />
              <mxPoint x="630" y="370" />
              <mxPoint x="600" y="960" />
            </Array>
          </mxGeometry>
        </mxCell>
        <mxCell id="AlOQU3xbpBUKA7uWgHgc-27" value="" style="endArrow=classic;html=1;rounded=0;entryX=0.963;entryY=0.25;entryDx=0;entryDy=0;entryPerimeter=0;" edge="1" parent="1" target="AlOQU3xbpBUKA7uWgHgc-21">
          <mxGeometry width="50" height="50" relative="1" as="geometry">
            <mxPoint x="1040" y="660" as="sourcePoint" />
            <mxPoint x="980" y="970" as="targetPoint" />
            <Array as="points">
              <mxPoint x="1030" y="660" />
              <mxPoint x="1010" y="660" />
              <mxPoint x="980" y="660" />
              <mxPoint x="980" y="970" />
            </Array>
          </mxGeometry>
        </mxCell>
        <mxCell id="AlOQU3xbpBUKA7uWgHgc-28" value="" style="endArrow=classic;html=1;rounded=0;exitX=0.5;exitY=1;exitDx=0;exitDy=0;entryX=0.954;entryY=0.725;entryDx=0;entryDy=0;entryPerimeter=0;" edge="1" parent="1" source="AlOQU3xbpBUKA7uWgHgc-16" target="AlOQU3xbpBUKA7uWgHgc-21">
          <mxGeometry width="50" height="50" relative="1" as="geometry">
            <mxPoint x="1310" y="630" as="sourcePoint" />
            <mxPoint x="1270" y="1020" as="targetPoint" />
            <Array as="points">
              <mxPoint x="1270" y="1010" />
            </Array>
          </mxGeometry>
        </mxCell>
        <mxCell id="AlOQU3xbpBUKA7uWgHgc-31" value="" style="endArrow=classic;html=1;rounded=0;exitX=1;exitY=0.5;exitDx=0;exitDy=0;entryX=0.5;entryY=1;entryDx=0;entryDy=0;" edge="1" parent="1" source="AlOQU3xbpBUKA7uWgHgc-16" target="AlOQU3xbpBUKA7uWgHgc-21">
          <mxGeometry width="50" height="50" relative="1" as="geometry">
            <mxPoint x="1440" y="480" as="sourcePoint" />
            <mxPoint x="760" y="1060" as="targetPoint" />
            <Array as="points">
              <mxPoint x="1600" y="480" />
              <mxPoint x="1600" y="1050" />
              <mxPoint x="755" y="1050" />
            </Array>
          </mxGeometry>
        </mxCell>
        <mxCell id="AlOQU3xbpBUKA7uWgHgc-32" value="" style="endArrow=classic;html=1;rounded=0;exitX=0.5;exitY=1;exitDx=0;exitDy=0;entryX=0.204;entryY=0.875;entryDx=0;entryDy=0;entryPerimeter=0;" edge="1" parent="1" source="AlOQU3xbpBUKA7uWgHgc-17" target="AlOQU3xbpBUKA7uWgHgc-21">
          <mxGeometry width="50" height="50" relative="1" as="geometry">
            <mxPoint x="1420" y="990" as="sourcePoint" />
            <mxPoint x="720" y="1120" as="targetPoint" />
            <Array as="points">
              <mxPoint x="1420" y="1130" />
              <mxPoint x="717" y="1130" />
            </Array>
          </mxGeometry>
        </mxCell>
      </root>
    </mxGraphModel>
  </diagram>
</mxfile>
